<svg width="154" height="19" viewBox="0 0 154 19" fill="none" xmlns="http://www.w3.org/2000/svg">
<path d="M13.9354 5.05314C13.4099 4.90561 12.868 4.82011 12.3214 4.79849C11.7342 4.77529 11.1464 4.82475 10.5721 4.94568C9.69379 5.1377 8.86115 5.48949 8.11849 5.98232C6.04363 7.36121 5.4083 9.43721 5.31407 9.76138C4.93802 11.0898 4.9809 12.4967 5.43722 13.8014C5.63017 14.3402 5.8932 14.853 6.21995 15.3275L1.40132 15.9704C1.36331 15.9755 1.32488 15.977 1.28657 15.9749C1.15198 15.9692 1.02279 15.922 0.917876 15.8402C0.812965 15.7584 0.737828 15.6463 0.703439 15.5202C0.669051 15.3941 0.677215 15.2607 0.726737 15.1395C0.776259 15.0182 0.864545 14.9154 0.978698 14.8462L4.48002 12.7286L0.473045 11.7155C0.333027 11.6803 0.209715 11.5997 0.123723 11.4871C0.0377314 11.3746 -0.00572896 11.2368 0.000606406 11.0969C0.00694178 10.9571 0.062689 10.8235 0.15853 10.7187C0.25437 10.6138 0.384496 10.544 0.527155 10.5208L4.6097 9.85439L1.31456 7.44609C1.19992 7.36103 1.11887 7.24051 1.08491 7.10461C1.05096 6.96872 1.06616 6.82567 1.12797 6.69931C1.18809 6.57153 1.29231 6.46802 1.42273 6.40655C1.55314 6.34508 1.70161 6.3295 1.8426 6.36249L5.8785 7.25736L3.78312 3.80609C3.70942 3.68528 3.6809 3.54361 3.70234 3.40486C3.72378 3.26611 3.79387 3.13872 3.90085 3.04406C4.00784 2.9494 4.1452 2.89324 4.2899 2.88501C4.4346 2.87677 4.57782 2.91695 4.69553 2.99881L8.06344 5.32404L7.49622 1.35896C7.47642 1.22022 7.50637 1.07911 7.58106 0.959156C7.65576 0.839206 7.77069 0.747671 7.90668 0.699816C8.04267 0.651962 8.1915 0.650682 8.32834 0.696193C8.46519 0.741703 8.58177 0.831251 8.65866 0.9499L10.8501 4.33074L11.8969 0.458667C11.9332 0.322919 12.0166 0.203361 12.1331 0.119981C12.2496 0.036601 12.3921 -0.00554651 12.5369 0.000586037C12.6816 0.00671859 12.8198 0.0607596 12.9283 0.153673C13.0368 0.246586 13.1091 0.37274 13.133 0.511043L13.8337 4.44451C13.8673 4.6495 13.9027 4.85267 13.9354 5.05314Z" fill="#FE1C65"/>
<path d="M6.20566 9.21986C6.86159 7.72184 8.09577 6.53082 9.64541 5.90043C10.4473 5.56779 11.3115 5.39902 12.1839 5.40468C12.8245 5.40237 13.4611 5.50307 14.0675 5.70267C15.2817 6.10099 16.3562 6.82046 17.1696 7.77957C17.5892 8.27315 17.937 8.82003 18.2033 9.40497L16.4223 10.5617C16.2209 10.1307 15.9666 9.72469 15.6647 9.3526C15.3725 8.99044 15.0357 8.66415 14.6618 8.38097C14.3051 8.11014 13.9082 7.89307 13.4845 7.73713C13.0756 7.58684 12.6419 7.50974 12.2045 7.50957C11.6231 7.50552 11.0473 7.62029 10.5149 7.84639C10.0028 8.06252 9.53804 8.37113 9.14536 8.75571C8.75486 9.14096 8.43888 9.59085 8.21242 10.084C7.98301 10.583 7.86447 11.1231 7.86447 11.6692C7.86447 12.2154 7.98301 12.7555 8.21242 13.2545C8.4369 13.7458 8.75318 14.1927 9.14536 14.5728C9.53909 14.9525 10.0047 15.2551 10.5168 15.4641C11.044 15.683 11.6121 15.7945 12.1858 15.7919C12.5871 15.7911 12.9853 15.7239 13.3632 15.5932C13.7618 15.4565 14.1403 15.2701 14.4892 15.0388C14.8545 14.798 15.1882 14.5151 15.4828 14.1963C15.7883 13.864 16.0558 13.5007 16.2805 13.1127L17.8777 14.6586C17.2605 15.6128 16.4276 16.419 15.4418 17.0164C14.4639 17.6002 13.3346 17.9027 12.1858 17.8887C11.3134 17.8943 10.4492 17.7256 9.64728 17.3929C8.09764 16.7625 6.86345 15.5715 6.20753 14.0735C5.86954 13.3059 5.69531 12.4801 5.69531 11.6458C5.69531 10.8114 5.86954 9.98562 6.20753 9.21805L6.20566 9.21986Z" fill="white"/>
<path d="M20.5156 5.46387H22.7071V17.835H20.5156V5.46387ZM30.0988 12.975H23.5682V10.9532H30.0988V5.46387H32.3304V17.835H30.0988V12.975Z" fill="white"/>
<path d="M41.1159 4.25488L48.098 17.8306H37.942L39.3731 15.7898H44.5127L41.114 9.01189L36.5893 17.8306H34.0703L41.1159 4.25488Z" fill="white"/>
<path d="M50.5849 12.8659C50.7329 13.264 50.9363 13.6407 51.1894 13.9856C51.4547 14.3479 51.7684 14.6747 52.1223 14.9572C52.493 15.253 52.9027 15.4996 53.3408 15.6905L51.9488 17.3944C51.3843 17.1103 50.8606 16.756 50.3908 16.3406C49.9351 15.9417 49.5357 15.4862 49.2032 14.9861C48.877 14.4935 48.6221 13.96 48.4456 13.4005C48.2683 12.8386 48.1787 12.2542 48.1798 11.6667C48.1759 10.8393 48.3464 10.0199 48.6807 9.25839C49.0015 8.51668 49.4675 7.84208 50.0531 7.27179C50.6432 6.70375 51.3398 6.24986 52.1056 5.93444C52.9129 5.60723 53.7795 5.43872 54.6548 5.43872C55.5301 5.43872 56.3967 5.60723 57.2041 5.93444C58.7537 6.56484 59.9879 7.75585 60.6438 9.25387C60.9852 10.0136 61.1597 10.8337 61.156 11.6622C61.1577 12.2578 61.061 12.8498 60.8696 13.4158C60.6778 13.9783 60.4056 14.5121 60.0607 15.0015C59.338 16.0231 58.3537 16.8458 57.2041 17.389L56.0164 15.6453C56.4388 15.448 56.8372 15.2057 57.2041 14.9229C57.5617 14.6494 57.8817 14.3329 58.1566 13.9811C58.4182 13.6454 58.6285 13.275 58.7807 12.8812C58.93 12.4979 59.0064 12.0917 59.0065 11.682C59.0081 11.1358 58.8892 10.5954 58.6576 10.0973C58.4322 9.60448 58.1128 9.15721 57.7163 8.77889C57.3159 8.39907 56.8474 8.09307 56.3336 7.87589C55.8091 7.65375 55.2428 7.53907 54.6702 7.53907C54.0977 7.53907 53.5313 7.65375 53.0068 7.87589C52.4973 8.09478 52.0328 8.40066 51.6354 8.77889C51.2386 9.15535 50.9217 9.6032 50.7024 10.0973C50.4779 10.5973 50.3629 11.1369 50.3647 11.682C50.3671 12.086 50.4416 12.4865 50.5849 12.8659Z" fill="white"/>
<path d="M66.8526 7.48578C66.3071 7.48578 65.9044 7.63778 65.6444 7.94179C65.3796 8.26132 65.2416 8.66202 65.2554 9.07145C65.2418 9.44255 65.3692 9.80561 65.6136 10.0918C65.8525 10.3627 66.2381 10.5509 66.7705 10.6562V12.678C66.2706 12.6817 65.7754 12.5839 65.317 12.3909C64.4229 12.0143 63.7095 11.3238 63.3205 10.4585C63.1225 10.0213 63.0214 9.54878 63.0238 9.07145C63.017 8.56731 63.1071 8.06635 63.2897 7.59414C63.4517 7.17456 63.6935 6.78804 64.0025 6.45455C64.2975 6.14161 64.6569 5.89186 65.0576 5.72132C65.4674 5.54828 65.9101 5.46059 66.3572 5.46396H74.0595V7.48578H66.8526ZM70.3978 15.8096C70.9575 15.8096 71.3671 15.6609 71.6264 15.3636C71.8849 15.0656 72.0155 14.6863 72.0155 14.224C72.0252 13.8584 71.896 13.5021 71.6526 13.2225C71.4131 12.9522 71.0275 12.7641 70.4957 12.6582V10.6165C70.9922 10.6152 71.4835 10.7133 71.939 10.9045C72.3858 11.0894 72.7923 11.3548 73.1369 11.6865C73.4788 12.0191 73.7563 12.4085 73.956 12.8361C74.161 13.2718 74.2663 13.7452 74.2648 14.224C74.2713 14.7278 74.1811 15.2284 73.9989 15.7004C73.8346 16.1221 73.5874 16.5091 73.2712 16.84C72.9688 17.1539 72.6028 17.4041 72.1961 17.575C71.7893 17.7459 71.3506 17.8338 70.9071 17.8333H63.2281V15.8096H70.3978Z" fill="white"/>
<path d="M86.2962 8.33722V17.8305H84.1094V5.46387H87.0015L93.7989 14.9174V5.46387H96.0305V17.835H93.2457L86.2962 8.33722Z" fill="white"/>
<path d="M104.809 4.25488L111.791 17.8306H101.635L103.069 15.7898H108.208L104.809 9.01189L100.285 17.8306H97.7656L104.809 4.25488Z" fill="white"/>
<path d="M121.564 5.46387V7.48569H117.161V17.8305H114.95V7.48569H110.609V5.46387H121.564Z" fill="white"/>
<path d="M123.85 5.46387H126.039V17.835H123.848L123.85 5.46387Z" fill="white"/>
<path d="M134.704 19L127.742 5.42432H130.282L134.704 14.2439L139.188 5.42432H141.768L134.704 19Z" fill="white"/>
<path d="M143.469 17.8305V5.46387H153.191V7.48569H145.656V15.8095H153.191V17.8305H143.469ZM153.071 10.9532V12.975H146.602V10.9532H153.071Z" fill="white"/>
</svg>
