<svg width="279" height="43" viewBox="0 0 279 43" fill="none" xmlns="http://www.w3.org/2000/svg">
<path d="M120.837 6.41083C118.968 7.03407 116.932 7.69291 114.77 8.36957C90.5606 15.9552 50.2628 26.1762 49.3864 23.3806C48.4223 20.3267 68.3179 11.9576 68.2303 9.65165C68.1524 7.71962 30.7762 19.4542 18.6323 23.3183C18.5057 23.3628 18.3791 23.3984 18.2623 23.4429C16.4607 24.0216 15.2726 24.3956 14.9609 24.4935C17.5027 23.4874 77.2384 0.205215 82.3511 4.55894C87.5806 9.01061 82.6822 13.0171 82.6822 13.0171C82.6822 13.0171 127.216 4.27404 120.837 6.41083Z" fill="white" fill-opacity="0.13"/>
<path d="M254.791 6.69624L254.733 6.70515L254.538 6.74966C246.28 8.69059 236.308 10.9431 225.352 13.3114C166.911 25.9809 80.6189 42.3096 79.8204 35.8814C79.499 33.2549 84.5046 32.1954 84.3877 29.56C84.2903 26.9335 1.2408 41.8377 0.0429688 42.0514C0.101399 42.0336 0.41303 41.9178 0.958384 41.7308C6.79172 39.6564 38.432 28.5183 41.9573 29.2039C45.8429 29.9606 42.0936 32.7207 42.0936 32.7207C42.0936 32.7207 129.857 8.65498 141.445 9.15356C153.034 9.65215 148.574 18.6178 148.574 18.6178C148.574 18.6178 155.108 13.1155 158.955 12.982C162.802 12.8573 162.091 19.0541 162.091 19.0541C162.091 19.0541 276.002 -2.35844 278.027 0.21462C278.475 0.784433 269.35 3.25956 254.791 6.69624Z" fill="white" fill-opacity="0.13"/>
<path d="M64.3257 6.53575L58.9988 7.92467C58.9793 7.93358 58.9696 7.93358 58.9501 7.93358L40.3594 12.7681C40.6028 12.6434 44.3911 10.8004 48.5007 8.84171C48.5299 8.82391 48.5494 8.815 48.5786 8.7972C50.0589 8.09384 51.5781 7.37267 52.9902 6.71382C52.9999 6.70492 53.0096 6.70492 53.0096 6.70492C56.1065 5.25367 58.6774 4.09624 59.1351 4.02502C63.5953 3.33056 64.3257 6.53575 64.3257 6.53575Z" fill="white" fill-opacity="0.13"/>
<path d="M195.192 24.4494C195.299 24.77 194.023 25.2864 191.813 25.9274L191.793 25.9363C188.511 26.88 183.155 28.082 177.059 29.3107C176.387 29.4442 175.695 29.5867 175.004 29.7202C175.004 29.7202 175.004 29.7202 174.994 29.7202C170.797 30.5393 166.337 31.3673 162.013 32.1063C160.961 32.2844 159.919 32.4624 158.887 32.6316C147.834 34.4568 138.426 35.6231 137.93 34.7862C137.93 34.7862 140.208 34.2876 143.86 33.5041C158.39 30.3791 194.666 22.7756 195.192 24.4494Z" fill="white" fill-opacity="0.13"/>
<path d="M180.655 29.7289C180.177 31.7144 160.145 34.3231 158.889 32.6314C158.84 32.5602 158.821 32.489 158.831 32.4088C158.831 32.4088 160.807 31.9904 163.563 31.4473C163.593 31.4384 163.622 31.4384 163.641 31.4384C163.671 31.4295 163.69 31.4295 163.69 31.4295C166.602 30.8686 170.351 30.183 173.594 29.72C174.86 29.542 176.038 29.3995 177.061 29.3105C179.301 29.1146 180.781 29.1858 180.655 29.7289Z" fill="white" fill-opacity="0.13"/>
<path d="M205.331 2.21779C205.419 2.48489 204.104 2.95677 201.923 3.52658C201.923 3.52658 201.913 3.52658 201.903 3.53549C201.893 3.53549 201.893 3.53549 201.884 3.54439C192.486 6.00171 167.195 10.3643 166.523 9.23362C166.523 9.23362 168.267 8.85077 171.023 8.26315C171.831 8.08509 172.737 7.89812 173.701 7.68444C179.329 6.49139 187.266 4.84427 193.791 3.64233C200.16 2.46709 205.175 1.7103 205.331 2.21779Z" fill="white" fill-opacity="0.13"/>
<path d="M194.199 3.12599C194.16 3.28625 194.014 3.45541 193.78 3.64238C192.758 4.42588 190.021 5.40524 186.759 6.27777C180.595 7.93379 172.599 9.24258 171.012 8.26321C170.895 8.19199 170.817 8.11186 170.768 8.01392C170.311 7.05236 174.528 5.62783 179.504 4.4793C179.533 4.47039 179.543 4.47039 179.543 4.47039C186.33 2.89451 194.501 1.83501 194.199 3.12599Z" fill="white" fill-opacity="0.13"/>
<path opacity="0.55" d="M254.733 6.70483L254.538 6.74935L225.352 13.3111C166.911 25.9805 80.6189 42.3092 79.8204 35.881C79.499 33.2546 84.5046 32.1951 84.3877 29.5597C84.2903 26.9332 1.2408 41.8374 0.0429688 42.051C0.101399 42.0332 0.41303 41.9175 0.958384 41.7305C11.1643 39.6917 84.0371 25.2861 85.644 27.7345C87.3774 30.3699 83.336 33.5306 83.9105 34.5812C84.4851 35.6317 126.565 23.5143 131.746 24.5649C136.751 25.5799 133.713 28.0728 133.489 28.2509C133.986 28.1351 150.785 24.0485 151.924 24.5649C153.073 25.0902 149.616 27.2003 149.616 27.2003L254.733 6.70483Z" fill="white" fill-opacity="0.13"/>
<path opacity="0.55" d="M114.839 8.3432L114.771 8.36991C90.561 15.9556 50.2633 26.1766 49.3869 23.3809C48.4228 20.3271 68.3184 11.958 68.2308 9.65199C68.1529 7.71997 30.7767 19.4546 18.6328 23.3186C31.1273 19.2765 68.9319 5.60988 70.0811 8.77056C70.8309 10.8272 62.0079 18.2526 62.0079 18.7779C62.0079 19.3032 82.7605 14.0324 83.3351 14.5666C83.9097 15.0919 82.7605 15.6172 82.7605 15.6172L114.839 8.3432Z" fill="white" fill-opacity="0.13"/>
<path opacity="0.55" d="M58.9501 7.93363L40.3594 12.7681C40.6028 12.6435 50.984 7.5686 55.0937 5.60986C53.8082 6.28652 52.3572 7.45285 52.2111 7.71995C51.6365 8.77055 53.8179 9.12668 58.9501 7.93363Z" fill="white" fill-opacity="0.13"/>
<path opacity="0.55" d="M180.652 29.7289C180.175 31.7143 160.143 34.323 158.887 32.6313C147.834 34.4565 138.426 35.6229 137.93 34.786C137.93 34.786 140.208 34.2874 143.86 33.5039L143.87 33.5128C143.87 33.5128 141.562 34.0737 141.562 34.599C141.562 35.1065 161.799 31.7499 163.571 31.4561C163.6 31.4472 163.629 31.4472 163.649 31.4472C163.435 31.5095 162.5 31.7855 162.023 32.115C161.847 32.2396 161.73 32.3642 161.73 32.4978C161.73 33.0231 177.867 31.4472 178.442 30.3877C178.705 29.9158 176.981 29.7645 175.004 29.7378C175.004 29.7378 175.004 29.7378 174.994 29.7378C174.537 29.7289 174.059 29.7289 173.592 29.7378C171.615 29.7556 169.804 29.8624 169.804 29.8624L191.803 25.9539C188.521 26.8976 183.165 28.0996 177.069 29.3282C179.299 29.1145 180.779 29.1858 180.652 29.7289Z" fill="white" fill-opacity="0.13"/>
<path opacity="0.45" d="M186.419 5.61865C186.263 5.64536 185.913 5.71659 185.406 5.79672C185.874 5.70769 186.253 5.64536 186.419 5.61865Z" fill="white" fill-opacity="0.13"/>
<path opacity="0.55" d="M201.872 3.5354C192.474 5.99272 167.184 10.3553 166.512 9.22463C166.512 9.22463 168.255 8.84178 171.011 8.25416C170.894 8.18294 170.816 8.10281 170.767 8.00487C170.31 7.04331 174.526 5.61878 179.503 4.47025C178.918 4.69283 172.092 7.20357 172.092 7.71106C172.092 7.8179 172.705 7.79119 173.679 7.67545C176.552 7.35493 182.561 6.30434 185.21 5.83246C184.226 6.03724 183.038 6.33995 183.038 6.65157C183.038 6.80292 184.557 6.61595 186.748 6.26872C192.026 5.44071 201.142 3.67785 201.872 3.5354Z" fill="white" fill-opacity="0.13"/>
</svg>
