<svg width="27" height="27" viewBox="0 0 27 27" fill="none" xmlns="http://www.w3.org/2000/svg">
<rect x="0.5" y="0.5" width="26" height="26" rx="13" stroke="white"/>
<path d="M8.85727 6.58317C7.90983 6.58317 7.28909 7.1874 7.28909 7.97865C7.28781 8.1699 7.3273 8.35936 7.40508 8.53515C7.48286 8.71094 7.59725 8.86929 7.74111 9.00028C7.88497 9.13127 8.05519 9.23208 8.24111 9.29641C8.42704 9.36074 8.62467 9.38719 8.82163 9.37412H8.83945C9.80472 9.37412 10.4076 8.75551 10.4076 7.97865C10.4082 7.78608 10.3676 7.59547 10.2885 7.41883C10.2093 7.24219 10.0933 7.08334 9.94765 6.95226C9.80203 6.82119 9.62997 6.72073 9.44232 6.65721C9.25467 6.59368 9.05547 6.56848 8.85727 6.58317Z" fill="#F5F5ED"/>
<path d="M7.45312 10.4783H10.2271V18.5573H7.45312V10.4783Z" fill="#F5F5ED"/>
<path d="M17.0296 10.2886C15.5446 10.2886 14.5318 11.6495 14.5318 11.6495V10.4785H11.7578V18.5576H14.5318V14.0462C14.5215 13.8241 14.5516 13.6021 14.6209 13.3902C14.7256 13.1051 14.9183 12.8581 15.1728 12.6826C15.4272 12.5071 15.7312 12.4116 16.0436 12.4091C17.0474 12.4091 17.4484 13.1485 17.4484 14.2361V18.5518H20.2224V13.9253C20.2224 11.4423 18.8532 10.2886 17.0296 10.2886Z" fill="#F5F5ED"/>
</svg>
