<svg width="124" height="115" viewBox="0 0 124 115" fill="none" xmlns="http://www.w3.org/2000/svg">
<rect y="5" width="124" height="110" fill="#212023"/>
<rect width="124" height="2" fill="#EE2767"/>
<rect width="124" height="2" fill="url(#paint0_linear)"/>
<g clip-path="url(#clip0)">
<path d="M35.1328 34.2666V61.7166C35.1362 64.5226 37.4474 66.7966 40.2995 66.7999H50.6328C50.9575 66.8024 51.2627 66.9526 51.4595 67.2066L59.6145 77.9019C60.2105 78.6049 61.0954 79.0079 62.0258 79C62.9562 78.9921 63.8339 78.5742 64.4175 77.8613L72.5395 67.2066C72.7366 66.9529 73.0416 66.8029 73.3661 66.7999H83.6995C86.5515 66.7966 88.8627 64.5226 88.8661 61.7166V34.2666C88.8627 31.4605 86.5515 29.1866 83.6995 29.1833H76.9291C75.0048 22.3094 68.4905 17.6694 61.2524 18.0172C54.572 18.3473 48.855 22.8444 47.0575 29.1833H40.2995C37.4474 29.1866 35.1362 31.4605 35.1328 34.2666V34.2666ZM61.3495 20.0485C65.0208 19.8735 68.6046 21.1863 71.2657 23.6808C73.9268 26.1753 75.4329 29.6336 75.4328 33.2499C75.4469 36.9061 73.9031 40.4007 71.1765 42.8849C68.5735 45.3558 67.1224 48.7743 67.1661 52.3328V53.5833H56.8328V52.5036C56.8778 48.8677 55.4077 45.3724 52.7646 42.831C48.856 39.1935 47.5329 33.6111 49.4032 28.6479C51.2734 23.6847 55.9755 20.3 61.3495 20.0485ZM65.0995 60.6999H58.8995C57.7581 60.6999 56.8328 59.7896 56.8328 58.6666V55.6166H67.1661V58.6666C67.1661 59.7896 66.2409 60.6999 65.0995 60.6999ZM37.1995 34.2666C37.1995 32.5821 38.5874 31.2166 40.2995 31.2166H46.6514C46.6224 31.4291 46.5821 31.6385 46.5635 31.854C46.123 36.5083 47.8868 41.1027 51.3448 44.3082C53.5757 46.4651 54.812 49.4265 54.7661 52.5036V58.6666C54.7732 60.5153 56.0468 62.1267 57.8661 62.5889V63.7499C57.8661 64.3114 58.3288 64.7666 58.8995 64.7666C59.4702 64.7666 59.9328 64.3114 59.9328 63.7499V62.7333H64.0661V63.7499C64.0661 64.3114 64.5288 64.7666 65.0995 64.7666C65.6702 64.7666 66.1328 64.3114 66.1328 63.7499V62.5889C67.9522 62.1267 69.2258 60.5153 69.2328 58.6666V52.3328C69.1878 49.337 70.4018 46.4559 72.588 44.3702C75.7348 41.5031 77.5162 37.4696 77.4995 33.2499C77.4943 32.5696 77.4436 31.8904 77.3476 31.2166H83.6995C85.4116 31.2166 86.7995 32.5821 86.7995 34.2666V61.7166C86.7995 63.4011 85.4116 64.7666 83.6995 64.7666H73.3661C72.3915 64.7712 71.4747 65.2222 70.8861 65.9866L62.7972 76.6016C62.3768 77.0365 61.678 77.0547 61.2348 76.6423L53.1128 65.9866C52.5246 65.2218 51.6076 64.7707 50.6328 64.7666H40.2995C38.5874 64.7666 37.1995 63.4011 37.1995 61.7166V34.2666Z" fill="white"/>
<path d="M59.9318 46.4667C59.3611 46.4667 58.8984 46.9219 58.8984 47.4833V50.5333C58.8984 51.0948 59.3611 51.55 59.9318 51.55C60.5025 51.55 60.9651 51.0948 60.9651 50.5333V47.4833C60.9651 46.9219 60.5025 46.4667 59.9318 46.4667Z" fill="white"/>
<path d="M58.8984 42.3998C58.8984 42.9613 59.3611 43.4165 59.9318 43.4165C60.5025 43.4165 60.9651 42.9613 60.9651 42.3998V41.3831C60.9651 40.8216 60.5025 40.3665 59.9318 40.3665C59.3611 40.3665 58.8984 40.8216 58.8984 41.3831V42.3998Z" fill="white"/>
<path d="M64.0646 51.55C64.6353 51.55 65.0979 51.0948 65.0979 50.5333V47.4833C65.0979 46.9219 64.6353 46.4667 64.0646 46.4667C63.4939 46.4667 63.0312 46.9219 63.0312 47.4833V50.5333C63.0312 51.0948 63.4939 51.55 64.0646 51.55Z" fill="white"/>
<path d="M64.0646 43.4165C64.6353 43.4165 65.0979 42.9613 65.0979 42.3998V41.3831C65.0979 40.8216 64.6353 40.3665 64.0646 40.3665C63.4939 40.3665 63.0312 40.8216 63.0312 41.3831V42.3998C63.0312 42.9613 63.4939 43.4165 64.0646 43.4165Z" fill="white"/>
<path d="M45.466 25.1166C45.9049 25.1168 46.2961 24.8441 46.4415 24.4366C46.5868 24.029 46.4546 23.5756 46.1118 23.3059L40.9451 19.2392C40.4994 18.8883 39.8489 18.9593 39.4923 19.3978C39.1356 19.8363 39.2078 20.4763 39.6535 20.8273L44.8201 24.8939C45.0035 25.0382 45.2312 25.1167 45.466 25.1166Z" fill="white"/>
<path d="M79.1795 24.8939L84.3462 20.8273C84.7919 20.4763 84.864 19.8363 84.5074 19.3978C84.1507 18.9593 83.5002 18.8883 83.0545 19.2392L77.8878 23.3059C77.5995 23.5329 77.4562 23.894 77.5118 24.2532C77.5675 24.6124 77.8137 24.915 78.1577 25.0472C78.5016 25.1794 78.8912 25.1209 79.1795 24.8939Z" fill="white"/>
<path d="M39.4924 54.2185C39.6636 54.4291 39.9129 54.5642 40.1854 54.5939C40.4579 54.6237 40.7312 54.5457 40.9452 54.3771L46.1119 50.3104C46.5576 49.9595 46.6298 49.3195 46.2731 48.881C45.9164 48.4425 45.2659 48.3714 44.8202 48.7224L39.6536 52.789C39.4394 52.9575 39.3022 53.2028 39.2719 53.4709C39.2417 53.739 39.321 54.0079 39.4924 54.2185Z" fill="white"/>
<path d="M83.0545 54.3771C83.5002 54.728 84.1507 54.657 84.5074 54.2185C84.864 53.7799 84.7919 53.14 84.3462 52.789L79.1795 48.7224C78.7338 48.3714 78.0833 48.4425 77.7266 48.881C77.37 49.3195 77.4421 49.9595 77.8878 50.3104L83.0545 54.3771Z" fill="white"/>
<path d="M52.5013 31.1973C52.5663 31.2101 52.6324 31.2166 52.6987 31.2166C53.193 31.2158 53.6174 30.8706 53.7113 30.3931C54.4522 26.6487 58.2208 25.0546 58.258 25.0394C58.7856 24.8252 59.0368 24.2307 58.8191 23.7116C58.6014 23.1925 57.9972 22.9453 57.4696 23.1595C57.2722 23.2388 52.6377 25.1664 51.6829 30.0068C51.575 30.5579 51.9413 31.0907 52.5013 31.1973Z" fill="white"/>
<path d="M40.299 36.2999H43.399C43.9696 36.2999 44.4323 35.8448 44.4323 35.2833C44.4323 34.7218 43.9696 34.2666 43.399 34.2666H40.299C39.7283 34.2666 39.2656 34.7218 39.2656 35.2833C39.2656 35.8448 39.7283 36.2999 40.299 36.2999Z" fill="white"/>
<path d="M80.5997 36.2999H83.6997C84.2704 36.2999 84.7331 35.8448 84.7331 35.2833C84.7331 34.7218 84.2704 34.2666 83.6997 34.2666H80.5997C80.029 34.2666 79.5664 34.7218 79.5664 35.2833C79.5664 35.8448 80.029 36.2999 80.5997 36.2999Z" fill="white"/>
</g>
<defs>
<linearGradient id="paint0_linear" x1="124" y1="-2.6" x2="120.054" y2="20.8947" gradientUnits="userSpaceOnUse">
<stop stop-color="#EDE03E"/>
<stop offset="1" stop-color="#EE2767"/>
</linearGradient>
<clipPath id="clip0">
<rect width="62" height="61" fill="white" transform="translate(31 18)"/>
</clipPath>
</defs>
</svg>
