<svg width="27" height="27" viewBox="0 0 27 27" fill="none" xmlns="http://www.w3.org/2000/svg">
<rect x="0.5" y="0.5" width="26" height="26" rx="13" stroke="white"/>
<path d="M19.9636 9.88054C19.4591 10.0936 18.9255 10.235 18.3793 10.3006C18.9525 9.97099 19.3813 9.44943 19.5846 8.83443C19.0469 9.14142 18.4597 9.35844 17.8475 9.47636C17.4753 9.08309 16.9888 8.80826 16.4521 8.68804C15.9155 8.56782 15.3538 8.60785 14.8411 8.80286C14.3284 8.99787 13.8887 9.33872 13.5798 9.78053C13.2709 10.2223 13.1074 10.7444 13.1108 11.278C13.1091 11.4812 13.1301 11.6841 13.1735 11.8829C12.0854 11.8325 11.0205 11.5603 10.0483 11.0842C9.0761 10.6081 8.2185 9.9387 7.53145 9.11973C7.1796 9.70351 7.07088 10.3953 7.22746 11.0541C7.38403 11.7128 7.79412 12.2889 8.37408 12.6649C7.94366 12.6515 7.52284 12.5382 7.14695 12.3347V12.3637C7.14628 12.9755 7.36265 13.5689 7.75981 14.0445C8.15698 14.5202 8.71081 14.8491 9.32852 14.9763C9.09443 15.0357 8.8533 15.065 8.61133 15.0635C8.43748 15.066 8.26384 15.0509 8.09321 15.0186C8.26965 15.5453 8.61044 16.0061 9.06858 16.3373C9.52671 16.6685 10.0796 16.8538 10.6511 16.8678C9.68109 17.6 8.48576 17.9962 7.25603 17.9931C7.03735 17.9951 6.81875 17.9836 6.60156 17.9588C7.85397 18.7386 9.31226 19.1514 10.8011 19.1475C15.8405 19.1475 18.6002 15.1058 18.6002 11.6003C18.6002 11.484 18.6002 11.3704 18.6002 11.2569C19.1373 10.8823 19.5994 10.4159 19.9636 9.88054Z" fill="#F5F5ED"/>
</svg>
