<svg width="28" height="27" viewBox="0 0 28 27" fill="none" xmlns="http://www.w3.org/2000/svg">
<rect x="0.5" y="0.5" width="27" height="26" rx="13" stroke="white"/>
<path d="M21.656 9.8253C21.5654 9.49988 21.3884 9.20321 21.1429 8.96483C20.8974 8.72646 20.5918 8.55471 20.2566 8.46669C19.0195 8.14062 14.0626 8.14062 14.0626 8.14062C14.0626 8.14062 9.10576 8.14062 7.86585 8.45854C7.53203 8.54924 7.22791 8.72189 6.98279 8.95986C6.73767 9.19782 6.55983 9.49307 6.4664 9.81715C6.14453 11.029 6.14453 13.5234 6.14453 13.5234C6.14453 13.5234 6.14453 16.0206 6.472 17.2216C6.56189 17.5474 6.73854 17.8444 6.9842 18.0829C7.22986 18.3214 7.53587 18.4929 7.87145 18.5802C9.12536 18.9117 14.0682 18.9117 14.0682 18.9117C14.0682 18.9117 19.0251 18.9117 20.265 18.5938C20.6002 18.5058 20.9058 18.334 21.1513 18.0956C21.3968 17.8573 21.5738 17.5606 21.6644 17.2352C21.9891 16.0341 21.9891 13.537 21.9891 13.537C21.9891 13.537 21.9947 11.029 21.656 9.8253ZM12.484 15.8276V11.2084L16.6068 13.5126L12.484 15.8276Z" fill="#F5F5ED"/>
</svg>
